<svg xmlns="http://www.w3.org/2000/svg" viewBox="22.0 -127.9 524.4 455.7" width="524" height="456" role="img">
<rect x="22.0" y="-127.9" width="524.4" height="455.7" fill="#ffffff"/>
<defs>
<marker id="pj-ink" viewBox="0 0 10 10" refX="9" refY="5" markerWidth="6.5" markerHeight="6.5" orient="auto"><path d="M0,0 L10,5 L0,10 z" fill="#171920"/></marker>
<marker id="pj-coral" viewBox="0 0 10 10" refX="9" refY="5" markerWidth="6.5" markerHeight="6.5" orient="auto"><path d="M0,0 L10,5 L0,10 z" fill="#d9253f"/></marker>
<marker id="pj-blue" viewBox="0 0 10 10" refX="9" refY="5" markerWidth="6.5" markerHeight="6.5" orient="auto"><path d="M0,0 L10,5 L0,10 z" fill="#3c00f7"/></marker>
</defs>
<line x1="70.0" y1="250.0" x2="70.0" y2="57.0" stroke="#171920" stroke-width="1.5" fill="none" marker-end="url(#pj-ink)"/>
<polygon points="70.0,250.0 437.8,-73.9 437.8,91.2" fill="#d9253f" fill-opacity="0.06" stroke="none"/>
<text x="78.0" y="62.0" font-family="ui-monospace, GeistMonoVariableVF, Helvetica, monospace" font-size="15" fill="#171920" text-anchor="start">x</text>
<line x1="70.0" y1="250.0" x2="145.1" y2="293.3" stroke="#171920" stroke-width="1.5" fill="none" marker-end="url(#pj-ink)"/>
<text x="155.1" y="307.3" font-family="ui-monospace, GeistMonoVariableVF, Helvetica, monospace" font-size="15" fill="#171920" text-anchor="start">y</text>
<line x1="70.0" y1="250.0" x2="467.3" y2="78.5" stroke="#171920" stroke-width="1.5" fill="none" marker-end="url(#pj-ink)"/>
<text x="451.3" y="74.5" font-family="ui-monospace, GeistMonoVariableVF, Helvetica, monospace" font-size="15" fill="#171920" text-anchor="start">z</text>
<polygon points="199.1,-50.1 328.8,24.6 328.8,303.9 199.1,229.1" fill="#3c00f7" fill-opacity="0.10" stroke="#3c00f7" stroke-width="1.6"/>
<text x="264.0" y="-64.1" font-family="ui-monospace, GeistMonoVariableVF, Helvetica, monospace" font-size="14" fill="#3c00f7" text-anchor="middle">screen</text>
<line x1="106.8" y1="217.6" x2="379.0" y2="-22.0" stroke="#d9253f" stroke-width="1.8" fill="none" marker-end="url(#pj-coral)"/>
<line x1="264.0" y1="79.2" x2="264.0" y2="166.2" stroke="#464c5c" stroke-width="1" fill="none" stroke-dasharray="3 3"/>
<line x1="437.8" y1="-73.9" x2="437.8" y2="91.2" stroke="#464c5c" stroke-width="1" fill="none" stroke-dasharray="3 3"/>
<rect x="432.6" y="-28.4" width="10.4" height="26.0" fill="#d9253f" stroke="#d9253f" stroke-width="1.1"/>
<circle cx="437.8" cy="-51.0" r="26.0" fill="#d9253f" stroke="#d9253f" stroke-width="1.2"/>
<circle cx="422.8" cy="-43.2" r="18.2" fill="#d9253f" stroke="#d9253f" stroke-width="1.2"/>
<circle cx="452.9" cy="-43.2" r="18.2" fill="#d9253f" stroke="#d9253f" stroke-width="1.2"/>
<rect x="261.2" y="103.2" width="5.5" height="13.7" fill="#171920" stroke="#171920" stroke-width="1.1"/>
<circle cx="264.0" cy="91.3" r="13.7" fill="#171920" stroke="#171920" stroke-width="1.2"/>
<circle cx="256.0" cy="95.4" r="9.6" fill="#171920" stroke="#171920" stroke-width="1.2"/>
<circle cx="271.9" cy="95.4" r="9.6" fill="#171920" stroke="#171920" stroke-width="1.2"/>
<line x1="79.9" y1="273.0" x2="83.5" y2="281.2" stroke="#3c00f7" stroke-width="1.8" fill="none"/>
<line x1="83.5" y1="281.2" x2="277.4" y2="197.5" stroke="#3c00f7" stroke-width="1.8" fill="none"/>
<line x1="277.4" y1="197.5" x2="273.9" y2="189.2" stroke="#3c00f7" stroke-width="1.8" fill="none"/>
<line x1="180.5" y1="239.3" x2="183.2" y2="245.8" stroke="#3c00f7" stroke-width="1.8" fill="none"/>
<text x="194.3" y="275.5" font-family="Cambria Math, 'STIX Two Math', 'Times New Roman', Times, serif" font-size="16" fill="#3c00f7" text-anchor="middle" font-style="italic">d</text>
<line x1="88.6" y1="293.1" x2="92.2" y2="301.4" stroke="#464c5c" stroke-width="1.8" fill="none"/>
<line x1="92.2" y1="301.4" x2="460.0" y2="142.6" stroke="#464c5c" stroke-width="1.8" fill="none"/>
<line x1="460.0" y1="142.6" x2="456.5" y2="134.3" stroke="#464c5c" stroke-width="1.8" fill="none"/>
<line x1="276.1" y1="222.0" x2="278.9" y2="228.4" stroke="#464c5c" stroke-width="1.8" fill="none"/>
<text x="290.0" y="258.1" font-family="ui-monospace, GeistMonoVariableVF, Helvetica, monospace" font-size="14" fill="#464c5c" text-anchor="middle">depth</text>
<line x1="456.8" y1="91.2" x2="465.8" y2="91.2" stroke="#d9253f" stroke-width="1.8" fill="none"/>
<line x1="465.8" y1="91.2" x2="465.8" y2="-73.9" stroke="#d9253f" stroke-width="1.8" fill="none"/>
<line x1="465.8" y1="-73.9" x2="456.8" y2="-73.9" stroke="#d9253f" stroke-width="1.8" fill="none"/>
<line x1="465.8" y1="8.7" x2="472.8" y2="8.7" stroke="#d9253f" stroke-width="1.8" fill="none"/>
<text x="492.8" y="4.7" font-family="ui-monospace, GeistMonoVariableVF, Helvetica, monospace" font-size="13" fill="#d9253f" text-anchor="middle">height</text>
<text x="492.8" y="20.7" font-family="ui-monospace, GeistMonoVariableVF, Helvetica, monospace" font-size="13" fill="#d9253f" text-anchor="middle">in space</text>
<line x1="225.0" y1="166.2" x2="216.0" y2="166.2" stroke="#171920" stroke-width="1.8" fill="none"/>
<line x1="216.0" y1="166.2" x2="216.0" y2="79.2" stroke="#171920" stroke-width="1.8" fill="none"/>
<line x1="216.0" y1="79.2" x2="225.0" y2="79.2" stroke="#171920" stroke-width="1.8" fill="none"/>
<line x1="216.0" y1="122.7" x2="209.0" y2="122.7" stroke="#171920" stroke-width="1.8" fill="none"/>
<text x="189.0" y="118.7" font-family="ui-monospace, GeistMonoVariableVF, Helvetica, monospace" font-size="13" fill="#171920" text-anchor="middle">height</text>
<text x="189.0" y="134.7" font-family="ui-monospace, GeistMonoVariableVF, Helvetica, monospace" font-size="13" fill="#171920" text-anchor="middle">on screen</text>
<circle cx="70.0" cy="250.0" r="20" fill="#ffffff" stroke="none"/>
<path d="M70.0,250.0 L82.7,237.3 A18.0,18.0 0 0 1 82.7,262.7 Z" fill="#ffffff" stroke="none"/>
<path d="M85.6,234.4 L70.0,250.0 L85.6,265.6" fill="none" stroke="#171920" stroke-width="1.8" stroke-linejoin="miter"/>
<path d="M82.7,237.3 A18.0,18.0 0 0 1 82.7,262.7" fill="none" stroke="#171920" stroke-width="1.8"/>
<text x="46.0" y="-95.9" font-family="Cambria Math, 'STIX Two Math', 'Times New Roman', Times, serif" font-size="15" text-anchor="start"><tspan fill="#171920">height on screen</tspan></text>
<text x="46.0" y="-77.9" font-family="Cambria Math, 'STIX Two Math', 'Times New Roman', Times, serif" font-size="15" text-anchor="start"><tspan fill="#171920">= </tspan><tspan fill="#d9253f">height in space</tspan><tspan fill="#171920"> × </tspan><tspan fill="#3c00f7" font-style="italic">d</tspan><tspan fill="#171920"> / </tspan><tspan fill="#464c5c">depth</tspan></text>
</svg>
