<svg xmlns="http://www.w3.org/2000/svg" viewBox="0 0 640 420" width="640" height="420" role="img">
<rect width="640" height="420" fill="#e7eaef"/>
<defs>
<marker id="pj-ink" viewBox="0 0 10 10" refX="9" refY="5" markerWidth="6.5" markerHeight="6.5" orient="auto"><path d="M0,0 L10,5 L0,10 z" fill="#171920"/></marker>
<marker id="pj-coral" viewBox="0 0 10 10" refX="9" refY="5" markerWidth="6.5" markerHeight="6.5" orient="auto"><path d="M0,0 L10,5 L0,10 z" fill="#d9253f"/></marker>
<marker id="pj-blue" viewBox="0 0 10 10" refX="9" refY="5" markerWidth="6.5" markerHeight="6.5" orient="auto"><path d="M0,0 L10,5 L0,10 z" fill="#3c00f7"/></marker>
</defs>
<line x1="96.0" y1="248.0" x2="441.0" y2="248.0" stroke="#171920" stroke-width="1.2" fill="none" marker-end="url(#pj-ink)"/>
<line x1="96.0" y1="248.0" x2="96.0" y2="78.0" stroke="#171920" stroke-width="1.2" fill="none" marker-end="url(#pj-ink)"/>
<text x="449.0" y="252.0" font-family="ui-monospace, GeistMonoVariableVF, Helvetica, monospace" font-size="13" fill="#171920" text-anchor="start">depth</text>
<text x="82.0" y="70.0" font-family="ui-monospace, GeistMonoVariableVF, Helvetica, monospace" font-size="13" fill="#171920" text-anchor="start">up</text>
<polygon points="196.0,61.0 306.0,125.0 306.0,385.0 196.0,321.0" fill="#3c00f7" fill-opacity="0.10" stroke="#3c00f7" stroke-width="1.5"/>
<text x="251.0" y="51.0" font-family="ui-monospace, GeistMonoVariableVF, Helvetica, monospace" font-size="13" fill="#3c00f7" text-anchor="middle">screen</text>
<polygon points="96.0,248.0 401.0,120.0 401.0,248.0" fill="#d9253f" fill-opacity="0.06" stroke="none"/>
<line x1="96.0" y1="248.0" x2="401.0" y2="120.0" stroke="#d9253f" stroke-width="1.7" fill="none" marker-end="url(#pj-coral)"/>
<line x1="251.0" y1="183.0" x2="251.0" y2="248.0" stroke="#464c5c" stroke-width="1" fill="none" stroke-dasharray="3 3"/>
<line x1="401.0" y1="120.0" x2="401.0" y2="248.0" stroke="#464c5c" stroke-width="1" fill="none" stroke-dasharray="3 3"/>
<rect x="90.0" y="242.0" width="12" height="12" fill="#171920"/>
<text x="74.0" y="274.0" font-family="ui-monospace, GeistMonoVariableVF, Helvetica, monospace" font-size="14" fill="#171920" text-anchor="start">eye</text>
<circle cx="251.0" cy="183.0" r="5" fill="#171920"/>
<text x="241.0" y="171.0" font-family="ui-monospace, GeistMonoVariableVF, Helvetica, monospace" font-size="13" fill="#171920" text-anchor="end">on screen</text>
<circle cx="401.0" cy="120.0" r="5" fill="#d9253f"/>
<text x="411.0" y="114.0" font-family="ui-monospace, GeistMonoVariableVF, Helvetica, monospace" font-size="13" fill="#d9253f" text-anchor="start">point in space</text>
</svg>
