<svg xmlns="http://www.w3.org/2000/svg" viewBox="24.0 -128.4 591.7 448.4" width="592" height="448" role="img">
<rect x="24.0" y="-128.4" width="591.7" height="448.4" fill="#ffffff"/>
<defs>
<marker id="fp-ink" viewBox="0 0 10 10" refX="9" refY="5" markerWidth="6.5" markerHeight="6.5" orient="auto"><path d="M0,0 L10,5 L0,10 z" fill="#171920"/></marker>
<marker id="fp-coral" viewBox="0 0 10 10" refX="9" refY="5" markerWidth="6.5" markerHeight="6.5" orient="auto"><path d="M0,0 L10,5 L0,10 z" fill="#d9253f"/></marker>
<marker id="fp-blue" viewBox="0 0 10 10" refX="9" refY="5" markerWidth="6.5" markerHeight="6.5" orient="auto"><path d="M0,0 L10,5 L0,10 z" fill="#3c00f7"/></marker>
</defs>
<line x1="70.0" y1="250.0" x2="70.0" y2="77.6" stroke="#171920" stroke-width="1.5" fill="none" marker-end="url(#fp-ink)"/>
<text x="78.0" y="82.6" font-family="ui-monospace, GeistMonoVariableVF, Helvetica, monospace" font-size="15" fill="#171920" text-anchor="start">x</text>
<line x1="70.0" y1="250.0" x2="137.9" y2="289.2" stroke="#171920" stroke-width="1.5" fill="none" marker-end="url(#fp-ink)"/>
<text x="147.9" y="303.2" font-family="ui-monospace, GeistMonoVariableVF, Helvetica, monospace" font-size="15" fill="#171920" text-anchor="start">y</text>
<line x1="70.0" y1="250.0" x2="558.6" y2="39.0" stroke="#171920" stroke-width="1.5" fill="none" marker-end="url(#fp-ink)"/>
<text x="542.6" y="35.0" font-family="ui-monospace, GeistMonoVariableVF, Helvetica, monospace" font-size="15" fill="#171920" text-anchor="start">z</text>
<polygon points="184.8,-17.1 300.0,49.4 300.0,298.0 184.8,231.6" fill="#3c00f7" fill-opacity="0.10" stroke="#3c00f7" stroke-width="1.6"/>
<text x="242.4" y="-31.1" font-family="ui-monospace, GeistMonoVariableVF, Helvetica, monospace" font-size="14" fill="#3c00f7" text-anchor="middle">screen</text>
<line x1="90.8" y1="229.7" x2="329.9" y2="-3.3" stroke="#d9253f" stroke-width="1.7" fill="none"/>
<line x1="107.3" y1="222.6" x2="536.1" y2="-92.4" stroke="#d9253f" stroke-width="1.3" fill="none" stroke-dasharray="5 3"/>
<rect x="325.1" y="38.7" width="9.6" height="24.0" fill="#d9253f" stroke="#d9253f" stroke-width="1.1"/>
<circle cx="329.9" cy="17.8" r="24.0" fill="#d9253f" stroke="#d9253f" stroke-width="1.2"/>
<circle cx="316.0" cy="25.0" r="16.8" fill="#d9253f" stroke="#d9253f" stroke-width="1.2"/>
<circle cx="343.8" cy="25.0" r="16.8" fill="#d9253f" stroke="#d9253f" stroke-width="1.2"/>
<text x="363.5" y="11.1" font-family="ui-monospace, GeistMonoVariableVF, Helvetica, monospace" font-size="14" fill="#d9253f" text-anchor="start">near</text>
<rect x="531.3" y="-50.4" width="9.6" height="24.0" fill="#d9253f" stroke="#d9253f" stroke-width="1.1"/>
<circle cx="536.1" cy="-71.2" r="24.0" fill="#d9253f" stroke="#d9253f" stroke-width="1.2"/>
<circle cx="522.2" cy="-64.0" r="16.8" fill="#d9253f" stroke="#d9253f" stroke-width="1.2"/>
<circle cx="550.0" cy="-64.0" r="16.8" fill="#d9253f" stroke="#d9253f" stroke-width="1.2"/>
<text x="569.7" y="-78.0" font-family="ui-monospace, GeistMonoVariableVF, Helvetica, monospace" font-size="14" fill="#d9253f" text-anchor="start">far</text>
<rect x="239.3" y="109.8" width="6.4" height="15.9" fill="#171920" stroke="#171920" stroke-width="1.1"/>
<circle cx="242.4" cy="95.9" r="15.9" fill="#171920" stroke="#171920" stroke-width="1.2"/>
<circle cx="233.2" cy="100.7" r="11.1" fill="#171920" stroke="#171920" stroke-width="1.2"/>
<circle cx="251.7" cy="100.7" r="11.1" fill="#171920" stroke="#171920" stroke-width="1.2"/>
<rect x="240.7" y="138.9" width="3.6" height="8.9" fill="#464c5c" stroke="#464c5c" stroke-width="1.1"/>
<circle cx="242.4" cy="131.1" r="8.9" fill="#464c5c" stroke="#464c5c" stroke-width="1.2"/>
<circle cx="237.3" cy="133.8" r="6.2" fill="#464c5c" stroke="#464c5c" stroke-width="1.2"/>
<circle cx="247.6" cy="133.8" r="6.2" fill="#464c5c" stroke="#464c5c" stroke-width="1.2"/>
<line x1="78.3" y1="269.3" x2="81.9" y2="277.5" stroke="#3c00f7" stroke-width="1.8" fill="none"/>
<line x1="81.9" y1="277.5" x2="254.3" y2="203.1" stroke="#3c00f7" stroke-width="1.8" fill="none"/>
<line x1="254.3" y1="203.1" x2="250.8" y2="194.8" stroke="#3c00f7" stroke-width="1.8" fill="none"/>
<line x1="168.1" y1="240.3" x2="170.9" y2="246.7" stroke="#3c00f7" stroke-width="1.8" fill="none"/>
<text x="177.2" y="265.4" font-family="Cambria Math, 'STIX Two Math', 'Times New Roman', Times, serif" font-size="16" fill="#3c00f7" text-anchor="middle" font-style="italic">d</text>
<line x1="251.6" y1="196.7" x2="255.1" y2="204.9" stroke="#464c5c" stroke-width="1.8" fill="none"/>
<line x1="255.1" y1="204.9" x2="342.6" y2="167.1" stroke="#464c5c" stroke-width="1.8" fill="none"/>
<line x1="342.6" y1="167.1" x2="339.0" y2="158.9" stroke="#464c5c" stroke-width="1.8" fill="none"/>
<line x1="298.9" y1="186.0" x2="301.6" y2="192.5" stroke="#464c5c" stroke-width="1.8" fill="none"/>
<text x="308.0" y="211.1" font-family="Cambria Math, 'STIX Two Math', 'Times New Roman', Times, serif" font-size="14" fill="#464c5c" text-anchor="middle" font-style="italic">d − z</text>
<circle cx="70.0" cy="250.0" r="20" fill="#ffffff" stroke="none"/>
<path d="M70.0,250.0 L82.7,237.3 A18.0,18.0 0 0 1 82.7,262.7 Z" fill="#ffffff" stroke="none"/>
<path d="M85.6,234.4 L70.0,250.0 L85.6,265.6" fill="none" stroke="#171920" stroke-width="1.8" stroke-linejoin="miter"/>
<path d="M82.7,237.3 A18.0,18.0 0 0 1 82.7,262.7" fill="none" stroke="#171920" stroke-width="1.8"/>
<text x="46.0" y="-98.4" font-family="Cambria Math, 'STIX Two Math', 'Times New Roman', Times, serif" font-size="16" text-anchor="start"><tspan fill="#171920" font-style="italic">s</tspan><tspan fill="#171920"> = 1 / (</tspan><tspan fill="#3c00f7" font-style="italic">d</tspan><tspan fill="#464c5c"> − </tspan><tspan fill="#464c5c" font-style="italic">z</tspan><tspan fill="#171920">)</tspan></text>
</svg>
