<svg xmlns="http://www.w3.org/2000/svg" viewBox="54.0 -89.4 467.8 403.4" width="468" height="403" role="img">
<rect x="54.0" y="-89.4" width="467.8" height="403.4" fill="#e7eaef"/>
<defs>
<marker id="fp-ink" viewBox="0 0 10 10" refX="9" refY="5" markerWidth="6.5" markerHeight="6.5" orient="auto"><path d="M0,0 L10,5 L0,10 z" fill="#171920"/></marker>
<marker id="fp-coral" viewBox="0 0 10 10" refX="9" refY="5" markerWidth="6.5" markerHeight="6.5" orient="auto"><path d="M0,0 L10,5 L0,10 z" fill="#d9253f"/></marker>
<marker id="fp-blue" viewBox="0 0 10 10" refX="9" refY="5" markerWidth="6.5" markerHeight="6.5" orient="auto"><path d="M0,0 L10,5 L0,10 z" fill="#3c00f7"/></marker>
</defs>
<line x1="70.0" y1="250.0" x2="70.0" y2="77.6" stroke="#171920" stroke-width="1.5" fill="none" marker-end="url(#fp-ink)"/>
<text x="78.0" y="82.6" font-family="ui-monospace, GeistMonoVariableVF, Helvetica, monospace" font-size="15" fill="#171920" text-anchor="start">x</text>
<line x1="70.0" y1="250.0" x2="137.9" y2="289.2" stroke="#171920" stroke-width="1.5" fill="none" marker-end="url(#fp-ink)"/>
<text x="147.9" y="303.2" font-family="ui-monospace, GeistMonoVariableVF, Helvetica, monospace" font-size="15" fill="#171920" text-anchor="start">y</text>
<line x1="70.0" y1="250.0" x2="496.1" y2="66.0" stroke="#171920" stroke-width="1.5" fill="none" marker-end="url(#fp-ink)"/>
<text x="480.1" y="62.0" font-family="ui-monospace, GeistMonoVariableVF, Helvetica, monospace" font-size="15" fill="#171920" text-anchor="start">z</text>
<polygon points="184.8,-17.1 300.0,49.4 300.0,298.0 184.8,231.6" fill="#3c00f7" fill-opacity="0.10" stroke="#3c00f7" stroke-width="1.6"/>
<text x="242.4" y="-31.1" font-family="ui-monospace, GeistMonoVariableVF, Helvetica, monospace" font-size="14" fill="#3c00f7" text-anchor="middle">screen</text>
<path d="M70.0,250.0 L82.7,237.3 A18.0,18.0 0 0 1 82.7,262.7 Z" fill="#e7eaef" stroke="none"/>
<path d="M85.6,234.4 L70.0,250.0 L85.6,265.6" fill="none" stroke="#171920" stroke-width="1.6" stroke-linejoin="miter"/>
<path d="M82.7,237.3 A18.0,18.0 0 0 1 82.7,262.7" fill="none" stroke="#171920" stroke-width="1.6"/>
<line x1="70.0" y1="250.0" x2="352.4" y2="-13.0" stroke="#d9253f" stroke-width="1.8" fill="none" marker-end="url(#fp-coral)"/>
<line x1="70.0" y1="250.0" x2="473.6" y2="-65.4" stroke="#d9253f" stroke-width="1.4" fill="none" stroke-dasharray="5 3"/>
<circle cx="242.4" cy="89.4" r="5.5" fill="#171920"/>
<circle cx="242.4" cy="115.3" r="4.5" fill="#464c5c"/>
<circle cx="352.4" cy="-13.0" r="5.5" fill="#d9253f"/>
<circle cx="473.6" cy="-65.4" r="5.5" fill="#d9253f"/>
<text x="362.4" y="-21.0" font-family="ui-monospace, GeistMonoVariableVF, Helvetica, monospace" font-size="15" fill="#d9253f" text-anchor="start">near</text>
<text x="483.6" y="-73.4" font-family="ui-monospace, GeistMonoVariableVF, Helvetica, monospace" font-size="15" fill="#d9253f" text-anchor="start">far</text>
<text x="232.4" y="79.4" font-family="ui-monospace, GeistMonoVariableVF, Helvetica, monospace" font-size="13" fill="#171920" text-anchor="end">near mark</text>
<text x="252.4" y="129.3" font-family="ui-monospace, GeistMonoVariableVF, Helvetica, monospace" font-size="13" fill="#464c5c" text-anchor="start">far mark</text>
<line x1="78.3" y1="269.3" x2="81.9" y2="277.5" stroke="#3c00f7" stroke-width="1.8" fill="none"/>
<line x1="81.9" y1="277.5" x2="254.3" y2="203.1" stroke="#3c00f7" stroke-width="1.8" fill="none"/>
<line x1="254.3" y1="203.1" x2="250.8" y2="194.8" stroke="#3c00f7" stroke-width="1.8" fill="none"/>
<line x1="168.1" y1="240.3" x2="170.9" y2="246.7" stroke="#3c00f7" stroke-width="1.8" fill="none"/>
<text x="177.2" y="265.4" font-family="ui-monospace, GeistMonoVariableVF, Helvetica, monospace" font-size="15" fill="#3c00f7" text-anchor="middle">d</text>
<line x1="251.6" y1="196.7" x2="255.1" y2="204.9" stroke="#464c5c" stroke-width="1.8" fill="none"/>
<line x1="255.1" y1="204.9" x2="365.1" y2="157.4" stroke="#464c5c" stroke-width="1.8" fill="none"/>
<line x1="365.1" y1="157.4" x2="361.5" y2="149.2" stroke="#464c5c" stroke-width="1.8" fill="none"/>
<line x1="310.1" y1="181.2" x2="312.9" y2="187.6" stroke="#464c5c" stroke-width="1.8" fill="none"/>
<text x="319.2" y="206.3" font-family="ui-monospace, GeistMonoVariableVF, Helvetica, monospace" font-size="14" fill="#464c5c" text-anchor="middle">d − z</text>
<text x="242.4" y="-55.1" font-family="ui-monospace, GeistMonoVariableVF, Helvetica, monospace" font-size="15" text-anchor="middle"><tspan fill="#171920">s = 1 / (</tspan><tspan fill="#464c5c">d − z</tspan><tspan fill="#171920">)</tspan></text>
</svg>
