<svg xmlns="http://www.w3.org/2000/svg" viewBox="0 0 640 460" width="640" height="460" role="img">
<rect width="640" height="460" fill="#e7eaef"/>
<defs>
<marker id="pj-ink" viewBox="0 0 10 10" refX="9" refY="5" markerWidth="6.5" markerHeight="6.5" orient="auto"><path d="M0,0 L10,5 L0,10 z" fill="#171920"/></marker>
<marker id="pj-coral" viewBox="0 0 10 10" refX="9" refY="5" markerWidth="6.5" markerHeight="6.5" orient="auto"><path d="M0,0 L10,5 L0,10 z" fill="#d9253f"/></marker>
<marker id="pj-blue" viewBox="0 0 10 10" refX="9" refY="5" markerWidth="6.5" markerHeight="6.5" orient="auto"><path d="M0,0 L10,5 L0,10 z" fill="#3c00f7"/></marker>
</defs>
<line x1="120.0" y1="300.0" x2="415.5" y2="172.4" stroke="#171920" stroke-width="1.3" fill="none" marker-end="url(#pj-ink)"/>
<line x1="120.0" y1="300.0" x2="120.0" y2="151.9" stroke="#171920" stroke-width="1.3" fill="none" marker-end="url(#pj-ink)"/>
<line x1="120.0" y1="300.0" x2="184.6" y2="337.3" stroke="#171920" stroke-width="1.3" fill="none" marker-end="url(#pj-ink)"/>
<text x="423.5" y="174.4" font-family="ui-monospace, GeistMonoVariableVF, Helvetica, monospace" font-size="14" fill="#171920" text-anchor="start">z</text>
<text x="106.0" y="145.9" font-family="ui-monospace, GeistMonoVariableVF, Helvetica, monospace" font-size="14" fill="#171920" text-anchor="start">x</text>
<text x="192.6" y="349.3" font-family="ui-monospace, GeistMonoVariableVF, Helvetica, monospace" font-size="14" fill="#171920" text-anchor="start">y</text>
<polygon points="195.3,85.6 295.7,143.6 295.7,363.7 195.3,305.7" fill="#3c00f7" fill-opacity="0.10" stroke="#3c00f7" stroke-width="1.5"/>
<text x="237.5" y="73.6" font-family="ui-monospace, GeistMonoVariableVF, Helvetica, monospace" font-size="13" fill="#3c00f7" text-anchor="middle">screen</text>
<polygon points="120.0,300.0 371.0,83.3 371.0,191.6" fill="#d9253f" fill-opacity="0.06" stroke="none"/>
<line x1="120.0" y1="300.0" x2="371.0" y2="83.3" stroke="#d9253f" stroke-width="1.7" fill="none" marker-end="url(#pj-coral)"/>
<line x1="245.5" y1="191.6" x2="245.5" y2="245.8" stroke="#464c5c" stroke-width="1" fill="none" stroke-dasharray="3 3"/>
<line x1="371.0" y1="83.3" x2="371.0" y2="191.6" stroke="#464c5c" stroke-width="1" fill="none" stroke-dasharray="3 3"/>
<path d="M120.0,300.0 L132.7,287.3 A18.0,18.0 0 0 1 132.7,312.7 Z" fill="#e7eaef" stroke="none"/>
<path d="M135.6,284.4 L120.0,300.0 L135.6,315.6" fill="none" stroke="#171920" stroke-width="1.6" stroke-linejoin="miter"/>
<path d="M132.7,287.3 A18.0,18.0 0 0 1 132.7,312.7" fill="none" stroke="#171920" stroke-width="1.6"/>
<circle cx="245.5" cy="191.6" r="5" fill="#171920"/>
<text x="255.5" y="187.6" font-family="ui-monospace, GeistMonoVariableVF, Helvetica, monospace" font-size="14" fill="#171920" text-anchor="start">B</text>
<circle cx="371.0" cy="83.3" r="5" fill="#d9253f"/>
<text x="381.0" y="77.3" font-family="ui-monospace, GeistMonoVariableVF, Helvetica, monospace" font-size="14" fill="#d9253f" text-anchor="start">A</text>
<line x1="131.9" y1="327.5" x2="257.4" y2="273.4" stroke="#464c5c" stroke-width="1" fill="none"/>
<line x1="130.3" y1="323.9" x2="133.5" y2="331.2" stroke="#464c5c" stroke-width="1" fill="none"/>
<line x1="255.8" y1="269.7" x2="259.0" y2="277.0" stroke="#464c5c" stroke-width="1" fill="none"/>
<text x="198.6" y="313.6" font-family="ui-monospace, GeistMonoVariableVF, Helvetica, monospace" font-size="13" fill="#464c5c" text-anchor="middle">F</text>
<line x1="139.8" y1="345.9" x2="390.8" y2="237.5" stroke="#464c5c" stroke-width="1" fill="none"/>
<line x1="138.2" y1="342.2" x2="141.4" y2="349.6" stroke="#464c5c" stroke-width="1" fill="none"/>
<line x1="389.2" y1="233.9" x2="392.4" y2="241.2" stroke="#464c5c" stroke-width="1" fill="none"/>
<text x="269.3" y="304.9" font-family="ui-monospace, GeistMonoVariableVF, Helvetica, monospace" font-size="13" fill="#464c5c" text-anchor="middle">Az</text>
<line x1="387.0" y1="191.6" x2="387.0" y2="83.3" stroke="#d9253f" stroke-width="1" fill="none"/>
<line x1="383.0" y1="191.6" x2="391.0" y2="191.6" stroke="#d9253f" stroke-width="1" fill="none"/>
<line x1="383.0" y1="83.3" x2="391.0" y2="83.3" stroke="#d9253f" stroke-width="1" fill="none"/>
<text x="397.0" y="141.5" font-family="ui-monospace, GeistMonoVariableVF, Helvetica, monospace" font-size="13" fill="#d9253f" text-anchor="middle">Ax</text>
<line x1="229.5" y1="245.8" x2="229.5" y2="191.6" stroke="#464c5c" stroke-width="1" fill="none"/>
<line x1="225.5" y1="245.8" x2="233.5" y2="245.8" stroke="#464c5c" stroke-width="1" fill="none"/>
<line x1="225.5" y1="191.6" x2="233.5" y2="191.6" stroke="#464c5c" stroke-width="1" fill="none"/>
<text x="239.5" y="222.7" font-family="ui-monospace, GeistMonoVariableVF, Helvetica, monospace" font-size="13" fill="#464c5c" text-anchor="middle">Bx</text>
</svg>
